<svg height="512" viewBox="0 0 58 58" width="512" xmlns="http://www.w3.org/2000/svg"><g id="Page-1" fill="none" fill-rule="evenodd"><g id="002---Calculator" fill-rule="nonzero"><path id="Shape" d="m8.18 7-2.27-5c-.16245308-.356559-.51817693-.58539175-.91-.58539175s-.74754692.22883275-.91.58539175l-2.27 5-1.82 4v42c0 2.7614237 2.23857625 5 5 5s5-2.2385763 5-5v-42z" fill="#f0c419"/><path id="Shape" d="m15 14v-11c0-1.65685425 1.3431458-3 3-3h37c1.6568542 0 3 1.34314575 3 3v52c0 1.6568542-1.3431458 3-3 3h-37c-1.6568542 0-3-1.3431458-3-3z" fill="#84b5cb"/><path id="Shape" d="m34 4h19c.5522847 0 1 .44771525 1 1v8c0 .5522847-.4477153 1-1 1h-33c-.5522847 0-1-.4477153-1-1v-8c0-.55228475.4477153-1 1-1z" fill="#2980ba"/><rect id="Rectangle-path" fill="#3b97d3" height="9" rx="2" width="9" x="19" y="45"/><path id="Shape" d="m35 54h-1c-1.1032019-.0032948-1.9967052-.8967981-2-2v-5c.0032948-1.1032019.8967981-1.9967052 2-2h18c1.1032019.0032948 1.9967052.8967981 2 2v5c-.0032948 1.1032019-.8967981 1.9967052-2 2z" fill="#f3d55b"/><g fill="#3b97d3"><rect id="Rectangle-path" height="9" rx="2" width="9" x="19" y="32"/><rect id="Rectangle-path" height="9" rx="2" width="9" x="45" y="32"/><rect id="Rectangle-path" height="9" rx="2" width="9" x="32" y="32"/><rect id="Rectangle-path" height="9" rx="2" width="9" x="19" y="19"/><rect id="Rectangle-path" height="9" rx="2" width="9" x="45" y="19"/><rect id="Rectangle-path" height="9" rx="2" width="9" x="32" y="19"/></g><path id="Shape" d="m10 48v5c0 2.7614237-2.23857625 5-5 5s-5-2.2385763-5-5v-5z" fill="#ff5364"/><path id="Rectangle-path" d="m0 43h10v5h-10z" fill="#95a5a5"/><path id="Shape" d="m10 11h-10l1.82-4h6.36z" fill="#fdd7ad"/><path id="Shape" d="m8.18 7h-6.36l2.27-5c.16245308-.356559.51817693-.58539175.91-.58539175s.74754692.22883275.91.58539175z" fill="#393f4a"/><path id="Shape" d="m37 15c-.3724946-.0005791-.7137948-.2081478-.885653-.5386283-.1718583-.3304804-.1457871-.7290917.067653-1.0343717l7-10c.3230894-.43335368.9320649-.53152528 1.3749678-.22165553.4429028.30986976.5594002.91560666.2630322 1.36765553l-7 10c-.187182.2677244-.4933298.4271452-.82.427z" fill="#fff"/><path id="Shape" d="m43 15c-.3724946-.0005791-.7137948-.2081478-.885653-.5386283-.1718583-.3304804-.1457871-.7290917.067653-1.0343717l7-10c.3230894-.43335368.9320649-.53152528 1.3749678-.22165553.4429028.30986976.5594002.91560666.2630322 1.36765553l-7 10c-.187182.2677244-.4933298.4271452-.82.427z" fill="#fff"/><path id="Shape" d="m53 15h-33c-1.1045695 0-2-.8954305-2-2v-8c0-1.1045695.8954305-2 2-2h33c1.1045695 0 2 .8954305 2 2v8c0 1.1045695-.8954305 2-2 2zm-33-10v8h33v-8z" fill="#285680"/></g></g></svg>