<svg height="512" viewBox="0 0 64 64" width="512" xmlns="http://www.w3.org/2000/svg"><g id="Browser"><path d="m61 15v44a2.006 2.006 0 0 1 -2 2h-54a2.006 2.006 0 0 1 -2-2v-44z" fill="#d1e7f8"/><path d="m61 5v10h-58v-10a2.006 2.006 0 0 1 2-2h54a2.006 2.006 0 0 1 2 2z" fill="#005ece"/><path d="m55 7h-24a2 2 0 0 0 0 4h24a2 2 0 0 0 0-4z" fill="#ffcd00"/><circle cx="9" cy="9" fill="#d80027" r="2"/><circle cx="16" cy="9" fill="#ebbf00" r="2"/><circle cx="23" cy="9" fill="#5eac24" r="2"/><path d="m13 25v26l14.53-13z" fill="#ff9811"/><path d="m27.53 38 3.136 2.807a2 2 0 0 0 2.668 0l3.136-2.807 14.53-13h-38z" fill="#ffb655"/><path d="m51 51v-26l-14.53 13z" fill="#ff9811"/><path d="m36.47 38-3.136 2.807a2 2 0 0 1 -2.668 0l-3.136-2.807-14.53 13h38z" fill="#ffa733"/><path d="m27 61h32a2 2 0 0 0 2-2v-32a33.98 33.98 0 0 1 -34 34z" fill="#bddbff"/><g fill="#231f20"><path d="m59 2h-54a3 3 0 0 0 -3 3v54a3 3 0 0 0 3 3h54a3 3 0 0 0 3-3v-54a3 3 0 0 0 -3-3zm-55 3a1 1 0 0 1 1-1h54a1 1 0 0 1 1 1v9h-56zm56 54a1 1 0 0 1 -1 1h-54a1 1 0 0 1 -1-1v-43h56z"/><path d="m55 6h-24a3 3 0 0 0 0 6h24a3 3 0 0 0 0-6zm0 4h-24a1 1 0 0 1 0-2h24a1 1 0 0 1 0 2z"/><path d="m9 6a3 3 0 1 0 3 3 3 3 0 0 0 -3-3zm0 4a1 1 0 1 1 1-1 1 1 0 0 1 -1 1z"/><path d="m16 6a3 3 0 1 0 3 3 3 3 0 0 0 -3-3zm0 4a1 1 0 1 1 1-1 1 1 0 0 1 -1 1z"/><path d="m23 6a3 3 0 1 0 3 3 3 3 0 0 0 -3-3zm0 4a1 1 0 1 1 1-1 1 1 0 0 1 -1 1z"/><path d="m13 52h38a1 1 0 0 0 1-1v-26a1 1 0 0 0 -1-1h-38a1 1 0 0 0 -1 1v26a1 1 0 0 0 1 1zm17-10.448a3 3 0 0 0 4 0l2.469-2.21 11.913 10.658h-32.765l11.913-10.658zm7.97-3.552 12.03-10.763v21.526zm-5.3 2.062a1 1 0 0 1 -1.334 0l-15.719-14.062h32.766zm-6.64-2.062-12.03 10.763v-21.526z"/></g></g></svg>